<svg width="20" height="20" viewBox="0 0 20 20" fill="none" xmlns="http://www.w3.org/2000/svg">
<g opacity="0.5">
<path d="M20 9.94169C19.995 12.3851 19.0983 14.7427 17.4782 16.5718C15.858 18.4008 13.6259 19.5756 11.201 19.8755C11.1469 19.8808 11.0922 19.8748 11.0405 19.858C10.9888 19.8412 10.9411 19.8139 10.9005 19.7778C10.8599 19.7416 10.8271 19.6975 10.8044 19.6481C10.7816 19.5987 10.7693 19.5452 10.7682 19.4908V12.2496H13.0762C13.1814 12.2498 13.2855 12.2285 13.3821 12.1868C13.4787 12.1452 13.5658 12.0842 13.6379 12.0076C13.71 11.931 13.7656 11.8404 13.8013 11.7414C13.837 11.6425 13.8521 11.5372 13.8455 11.4322C13.8285 11.2333 13.7366 11.0482 13.5885 10.9144C13.4404 10.7805 13.247 10.7078 13.0473 10.711H10.7682V8.40306C10.7682 7.99499 10.9303 7.60364 11.2189 7.31509C11.5074 7.02654 11.8988 6.86443 12.3069 6.86443H13.8455C13.9507 6.86464 14.0548 6.84327 14.1514 6.80163C14.2481 6.76 14.3351 6.69899 14.4072 6.62238C14.4793 6.54577 14.5349 6.45519 14.5706 6.35623C14.6064 6.25727 14.6214 6.15204 14.6148 6.04704C14.5978 5.84811 14.5059 5.66304 14.3578 5.52918C14.2097 5.39533 14.0163 5.32264 13.8166 5.32581H12.3069C11.4907 5.32581 10.708 5.65002 10.1309 6.22711C9.55382 6.80421 9.22961 7.58692 9.22961 8.40306V10.711H6.92167C6.81646 10.7108 6.71233 10.7322 6.61572 10.7738C6.5191 10.8154 6.43205 10.8764 6.35995 10.9531C6.28784 11.0297 6.23222 11.1202 6.19651 11.2192C6.16081 11.3182 6.14578 11.4234 6.15235 11.5284C6.16937 11.7273 6.26122 11.9124 6.40935 12.0463C6.55749 12.1801 6.75089 12.2528 6.95052 12.2496H9.22961V19.4908C9.22988 19.5447 9.21881 19.5981 9.19712 19.6475C9.17543 19.6968 9.1436 19.7411 9.1037 19.7773C9.06381 19.8136 9.01673 19.8411 8.96552 19.858C8.91432 19.8749 8.86014 19.8808 8.80649 19.8755C3.72901 19.26 -0.194487 14.8461 0.00745821 9.56665C0.120819 6.95943 1.2488 4.49978 3.15062 2.71274C5.05244 0.925696 7.57745 -0.0471852 10.1867 0.0017613C12.7959 0.0507078 15.2826 1.1176 17.1161 2.97472C18.9496 4.83183 19.9845 7.33205 20 9.94169Z" fill="black"/>
</g>
</svg>
