<svg width="19" height="19" viewBox="0 0 19 19" fill="none" xmlns="http://www.w3.org/2000/svg">
<g opacity="0.5">
<path d="M9.5 12.54C11.1789 12.54 12.54 11.1789 12.54 9.5C12.54 7.82105 11.1789 6.46 9.5 6.46C7.82105 6.46 6.46 7.82105 6.46 9.5C6.46 11.1789 7.82105 12.54 9.5 12.54Z" fill="black"/>
<path d="M13.68 0H5.32C3.90905 0 2.55589 0.560498 1.55819 1.55819C0.560498 2.55589 0 3.90905 0 5.32V13.68C0 15.091 0.560498 16.4441 1.55819 17.4418C2.55589 18.4395 3.90905 19 5.32 19H13.68C15.091 19 16.4441 18.4395 17.4418 17.4418C18.4395 16.4441 19 15.091 19 13.68V5.32C19 3.90905 18.4395 2.55589 17.4418 1.55819C16.4441 0.560498 15.091 0 13.68 0ZM9.5 14.06C8.59812 14.06 7.71649 13.7926 6.9666 13.2915C6.21671 12.7904 5.63225 12.0783 5.28711 11.245C4.94197 10.4118 4.85167 9.49494 5.02762 8.61039C5.20357 7.72583 5.63787 6.91332 6.27559 6.27559C6.91332 5.63787 7.72583 5.20357 8.61039 5.02762C9.49494 4.85167 10.4118 4.94197 11.245 5.28711C12.0783 5.63225 12.7904 6.21671 13.2915 6.9666C13.7926 7.71649 14.06 8.59812 14.06 9.5C14.06 10.7094 13.5796 11.8692 12.7244 12.7244C11.8692 13.5796 10.7094 14.06 9.5 14.06ZM14.44 5.7C14.2145 5.7 13.9941 5.63314 13.8067 5.50788C13.6192 5.38261 13.4731 5.20457 13.3868 4.99626C13.3005 4.78795 13.2779 4.55873 13.3219 4.3376C13.3659 4.11646 13.4745 3.91333 13.6339 3.7539C13.7933 3.59447 13.9965 3.48589 14.2176 3.4419C14.4387 3.39792 14.668 3.42049 14.8763 3.50678C15.0846 3.59306 15.2626 3.73918 15.3879 3.92665C15.5131 4.11412 15.58 4.33453 15.58 4.56C15.58 4.86235 15.4599 5.15231 15.2461 5.3661C15.0323 5.57989 14.7423 5.7 14.44 5.7Z" fill="black"/>
</g>
</svg>
