<svg width="19" height="19" viewBox="0 0 19 19" fill="none" xmlns="http://www.w3.org/2000/svg">
<g opacity="0.5">
<path d="M17.48 0H1.52C1.11687 0 0.730253 0.160142 0.445198 0.445198C0.160142 0.730253 0 1.11687 0 1.52V17.48C0 17.8831 0.160142 18.2697 0.445198 18.5548C0.730253 18.8399 1.11687 19 1.52 19H17.48C17.8831 19 18.2697 18.8399 18.5548 18.5548C18.8399 18.2697 19 17.8831 19 17.48V1.52C19 1.11687 18.8399 0.730253 18.5548 0.445198C18.2697 0.160142 17.8831 0 17.48 0ZM6.46 14.06C6.46 14.2616 6.37993 14.4549 6.2374 14.5974C6.09487 14.7399 5.90156 14.82 5.7 14.82C5.49844 14.82 5.30513 14.7399 5.1626 14.5974C5.02007 14.4549 4.94 14.2616 4.94 14.06V7.98C4.94 7.77844 5.02007 7.58513 5.1626 7.4426C5.30513 7.30007 5.49844 7.22 5.7 7.22C5.90156 7.22 6.09487 7.30007 6.2374 7.4426C6.37993 7.58513 6.46 7.77844 6.46 7.98V14.06ZM5.7 6.08C5.47453 6.08 5.25412 6.01314 5.06665 5.88788C4.87918 5.76261 4.73306 5.58457 4.64678 5.37626C4.56049 5.16795 4.53792 4.93873 4.5819 4.7176C4.62589 4.49646 4.73447 4.29333 4.8939 4.1339C5.05333 3.97447 5.25646 3.86589 5.4776 3.8219C5.69873 3.77792 5.92795 3.80049 6.13626 3.88678C6.34457 3.97306 6.52261 4.11918 6.64788 4.30665C6.77314 4.49412 6.84 4.71453 6.84 4.94C6.84 5.24235 6.71989 5.53231 6.5061 5.7461C6.29231 5.95989 6.00235 6.08 5.7 6.08ZM14.82 14.06C14.82 14.2616 14.7399 14.4549 14.5974 14.5974C14.4549 14.7399 14.2616 14.82 14.06 14.82C13.8584 14.82 13.6651 14.7399 13.5226 14.5974C13.3801 14.4549 13.3 14.2616 13.3 14.06V10.64C13.3 10.1361 13.0998 9.65282 12.7435 9.2965C12.3872 8.94018 11.9039 8.74 11.4 8.74C10.8961 8.74 10.4128 8.94018 10.0565 9.2965C9.70018 9.65282 9.5 10.1361 9.5 10.64V14.06C9.5 14.2616 9.41993 14.4549 9.2774 14.5974C9.13487 14.7399 8.94156 14.82 8.74 14.82C8.53844 14.82 8.34513 14.7399 8.2026 14.5974C8.06007 14.4549 7.98 14.2616 7.98 14.06V7.98C7.97947 7.79296 8.04794 7.6123 8.17229 7.47259C8.29663 7.33287 8.46814 7.24392 8.65397 7.22275C8.83981 7.20158 9.02692 7.24967 9.17951 7.35784C9.3321 7.466 9.43944 7.62664 9.481 7.809C9.99525 7.4604 10.5947 7.25846 11.2151 7.22487C11.8355 7.19129 12.4533 7.32732 13.0022 7.61836C13.551 7.90941 14.0103 8.34447 14.3305 8.87683C14.6508 9.40919 14.82 10.0187 14.82 10.64V14.06Z" fill="black"/>
</g>
</svg>
