<svg width="102" height="21" viewBox="0 0 102 21" fill="none" xmlns="http://www.w3.org/2000/svg">
<path d="M85.3904 10.376C85.3904 6.44529 88.0106 3.73219 91.6239 3.73219C95.2372 3.73219 97.8574 6.44529 97.8574 10.376C97.8574 14.3067 95.2372 17.0199 91.6239 17.0199C88.0106 17.0199 85.3904 14.3994 85.3904 10.376ZM81.1683 10.376C81.1683 16.5169 85.6017 20.7387 91.5313 20.7387C97.4599 20.7387 102 16.6095 102 10.376C102 4.14246 97.5666 0.0132347 91.637 0.0132347C85.7074 0.0132347 81.1683 4.2351 81.1683 10.376ZM60.3369 20.0373C60.3369 20.3418 60.4429 20.4343 60.7339 20.4343H63.8574C64.1613 20.4343 64.2549 20.3285 64.2549 20.0373V10.5746C64.2549 6.04826 66.7694 3.73219 69.5878 3.73219C71.9967 3.73219 73.505 5.04242 73.505 8.15257V20.0241C73.505 20.3285 73.6117 20.4212 73.9025 20.4212H77.0258C77.3306 20.4212 77.4232 20.3153 77.4232 20.0241V6.94822C77.4232 2.52783 74.9087 0 70.581 0C67.9598 0 65.9484 1.00584 64.2408 2.62047V0.807315C64.2408 0.502916 64.1352 0.410274 63.8444 0.410274H60.7208C60.4164 0.410274 60.3237 0.516157 60.3237 0.807315V20.0241L60.3369 20.0373ZM51.5888 20.0373C51.5888 20.3418 51.6947 20.4343 51.9858 20.4343H55.1092C55.4136 20.4343 55.5063 20.3285 55.5063 20.0373V0.820547C55.5063 0.516157 55.4004 0.423515 55.1092 0.423515H51.9858C51.6814 0.423515 51.5888 0.529389 51.5888 0.820547V20.0373ZM20.8049 20.0373C20.8049 20.3418 20.8975 20.4343 21.2019 20.4343H24.3253C24.6297 20.4343 24.7224 20.3285 24.7224 20.0373V10.6804C24.7224 5.95561 26.4296 3.73219 28.7457 3.73219C31.0618 3.73219 31.9618 4.93654 31.9618 7.45113V19.9314C31.9618 20.2358 32.0676 20.3285 32.3588 20.3285H35.4822C35.7866 20.3285 35.8792 20.2226 35.8792 19.9314V10.6804C35.8792 6.35265 37.5865 3.73219 40.101 3.73219C42.2186 3.73219 43.1186 4.8439 43.1186 7.45113V19.9314C43.1186 20.2358 43.2244 20.3285 43.5156 20.3285H46.639C46.9434 20.3285 47.0361 20.2226 47.0361 19.9314V6.55118C47.0361 2.22343 44.9185 0.0132347 41.1069 0.0132347C38.685 0.0132347 36.7791 1.01907 35.1646 2.72635C33.6557 0.820547 32.3455 0.0132347 29.7383 0.0132347C27.8193 0.0132347 25.8208 0.926431 24.6032 2.43519V0.820547C24.6032 0.516157 24.4974 0.423515 24.2062 0.423515H21.0828C20.7784 0.423515 20.6857 0.529389 20.6857 0.820547L20.7917 20.0373H20.8049ZM16.8874 14.5979C16.8874 10.7731 13.8699 9.56864 9.64808 8.86725C5.62473 8.16581 4.42039 7.35849 4.42039 5.84973C4.42039 4.34098 6.23349 3.83806 8.04669 3.83806C10.0583 3.83806 11.4612 4.5395 11.9641 6.04826C12.07 6.35265 12.07 6.44529 12.3611 6.44529H15.7757C16.0801 6.44529 16.1728 6.24678 16.1728 6.04826C15.8684 2.52783 12.9567 0.0132347 8.3246 0.0132347C4.40711 0.0132347 0.582293 1.82639 0.582293 6.04826C0.582293 9.26426 2.69987 11.0775 7.42465 11.8847C11.3421 12.4936 12.7582 13.195 12.7582 14.5979C12.7582 16.5169 11.0509 17.1124 8.73484 17.1124C6.41873 17.1124 4.51297 16.2125 4.20859 14.095C4.20859 13.7905 4.10273 13.6847 3.81154 13.6847H0.396948C0.0925685 13.6847 0 13.8832 0 14.095C0.30438 18.2242 3.71886 20.8314 8.5496 20.8314C13.3802 20.8314 16.9007 18.4227 16.9007 14.5979" fill="black"/>
</svg>
